<?xml version="1.0" encoding="UTF-8" standalone="no"?>
<!DOCTYPE svg PUBLIC "-//W3C//DTD SVG 1.1//EN"
 "http://www.w3.org/Graphics/SVG/1.1/DTD/svg11.dtd">
<!-- Generated by graphviz version 2.40.1 (20161225.0304)
 -->
<!-- Title: %3 Pages: 1 -->
<svg width="649pt" height="1440pt"
 viewBox="0.00 0.00 648.65 1440.00" xmlns="http://www.w3.org/2000/svg" xmlns:xlink="http://www.w3.org/1999/xlink">
<g id="graph0" class="graph" transform="scale(.4633 .4633) rotate(0) translate(36 3072)">
<title>%3</title>
<polygon fill="#ffffff" stroke="transparent" points="-36,36 -36,-3072 1364,-3072 1364,36 -36,36"/>
<g id="clust1" class="cluster">
<title>cluster_starter</title>
</g>
<g id="clust2" class="cluster">
<title>cluster_gosh</title>
</g>
<g id="clust3" class="cluster">
<title>cluster_banana</title>
</g>
<!-- handleUrl -->
<g id="node1" class="node">
<title>handleUrl</title>
<polygon fill="none" stroke="#000000" points="304,-3020 16,-3020 16,-2912 304,-2912 304,-3020"/>
<text text-anchor="middle" x="160" y="-2961.8" font-family="Helvetica,sans-Serif" font-size="14.00" fill="#000000">Match URL</text>
</g>
<!-- clonePageInstance -->
<g id="node2" class="node">
<title>clonePageInstance</title>
<polygon fill="none" stroke="#000000" points="304,-2839 16,-2839 16,-2731 304,-2731 304,-2839"/>
<text text-anchor="middle" x="160" y="-2780.8" font-family="Helvetica,sans-Serif" font-size="14.00" fill="#000000">Clone page instance</text>
</g>
<!-- handleUrl&#45;&gt;clonePageInstance -->
<g id="edge1" class="edge">
<title>handleUrl&#45;&gt;clonePageInstance</title>
<path fill="none" stroke="#000000" d="M160,-2911.694C160,-2892.0964 160,-2869.7877 160,-2849.4089"/>
<polygon fill="#000000" stroke="#000000" points="163.5001,-2849.2676 160,-2839.2676 156.5001,-2849.2677 163.5001,-2849.2676"/>
</g>
<!-- dynamicProps -->
<g id="node3" class="node">
<title>dynamicProps</title>
<polygon fill="none" stroke="#000000" points="304,-2658 16,-2658 16,-2550 304,-2550 304,-2658"/>
<text text-anchor="middle" x="160" y="-2599.8" font-family="Helvetica,sans-Serif" font-size="14.00" fill="#000000">Determine mode and dynamic props</text>
</g>
<!-- clonePageInstance&#45;&gt;dynamicProps -->
<g id="edge2" class="edge">
<title>clonePageInstance&#45;&gt;dynamicProps</title>
<path fill="none" stroke="#000000" d="M160,-2730.694C160,-2711.0964 160,-2688.7877 160,-2668.4089"/>
<polygon fill="#000000" stroke="#000000" points="163.5001,-2668.2676 160,-2658.2676 156.5001,-2668.2677 163.5001,-2668.2676"/>
</g>
<!-- handleAddDeleteRequired -->
<g id="node19" class="node">
<title>handleAddDeleteRequired</title>
<polygon fill="#e5e5e5" stroke="#000000" points="160,-2477 106,-2423 160,-2369 214,-2423 160,-2477"/>
<text text-anchor="middle" x="160" y="-2418.8" font-family="Helvetica,sans-Serif" font-size="14.00" fill="#000000">POST?</text>
</g>
<!-- dynamicProps&#45;&gt;handleAddDeleteRequired -->
<g id="edge3" class="edge">
<title>dynamicProps&#45;&gt;handleAddDeleteRequired</title>
<path fill="none" stroke="#000000" d="M160,-2549.694C160,-2530.0964 160,-2507.7877 160,-2487.4089"/>
<polygon fill="#000000" stroke="#000000" points="163.5001,-2487.2676 160,-2477.2676 156.5001,-2487.2677 163.5001,-2487.2676"/>
</g>
<!-- handleAddDelete -->
<g id="node4" class="node">
<title>handleAddDelete</title>
<polygon fill="none" stroke="#000000" points="608,-2296 320,-2296 320,-2188 608,-2188 608,-2296"/>
<text text-anchor="middle" x="464" y="-2237.8" font-family="Helvetica,sans-Serif" font-size="14.00" fill="#000000">Handle any Add/Delete action</text>
</g>
<!-- updatePageInstance -->
<g id="node5" class="node">
<title>updatePageInstance</title>
<polygon fill="none" stroke="#000000" points="304,-2115 16,-2115 16,-2007 304,-2007 304,-2115"/>
<text text-anchor="middle" x="160" y="-2056.8" font-family="Helvetica,sans-Serif" font-size="14.00" fill="#000000">Update page instance with dynamic props</text>
</g>
<!-- handleAddDelete&#45;&gt;updatePageInstance -->
<g id="edge5" class="edge">
<title>handleAddDelete&#45;&gt;updatePageInstance</title>
<path fill="none" stroke="#000000" d="M373.2018,-2187.9392C337.4057,-2166.6264 296.1733,-2142.0769 259.5654,-2120.2807"/>
<polygon fill="#000000" stroke="#000000" points="261.2382,-2117.2033 250.8553,-2115.0948 257.6571,-2123.218 261.2382,-2117.2033"/>
</g>
<!-- runPageComponentCode -->
<g id="node8" class="node">
<title>runPageComponentCode</title>
<polygon fill="none" stroke="#000000" points="304,-1934 16,-1934 16,-1826 304,-1826 304,-1934"/>
<text text-anchor="middle" x="160" y="-1875.8" font-family="Helvetica,sans-Serif" font-size="14.00" fill="#000000">Run arbitrary page/component code</text>
</g>
<!-- updatePageInstance&#45;&gt;runPageComponentCode -->
<g id="edge7" class="edge">
<title>updatePageInstance&#45;&gt;runPageComponentCode</title>
<path fill="none" stroke="#000000" d="M160,-2006.694C160,-1987.0964 160,-1964.7877 160,-1944.4089"/>
<polygon fill="#000000" stroke="#000000" points="163.5001,-1944.2676 160,-1934.2676 156.5001,-1944.2677 163.5001,-1944.2676"/>
</g>
<!-- evaluateRequiredIf -->
<g id="node6" class="node">
<title>evaluateRequiredIf</title>
<polygon fill="none" stroke="#000000" points="1024,-1753 736,-1753 736,-1645 1024,-1645 1024,-1753"/>
<text text-anchor="middle" x="880" y="-1694.8" font-family="Helvetica,sans-Serif" font-size="14.00" fill="#000000">Evaluate components with requiredIf</text>
</g>
<!-- validate -->
<g id="node7" class="node">
<title>validate</title>
<polygon fill="none" stroke="#000000" points="1024,-1572 736,-1572 736,-1464 1024,-1464 1024,-1572"/>
<text text-anchor="middle" x="880" y="-1513.8" font-family="Helvetica,sans-Serif" font-size="14.00" fill="#000000">Validate all expected fields</text>
</g>
<!-- evaluateRequiredIf&#45;&gt;validate -->
<g id="edge12" class="edge">
<title>evaluateRequiredIf&#45;&gt;validate</title>
<path fill="none" stroke="#000000" d="M880,-1644.694C880,-1625.0964 880,-1602.7877 880,-1582.4089"/>
<polygon fill="#000000" stroke="#000000" points="883.5001,-1582.2676 880,-1572.2676 876.5001,-1582.2677 883.5001,-1582.2676"/>
</g>
<!-- ifErrors -->
<g id="node22" class="node">
<title>ifErrors</title>
<polygon fill="#e5e5e5" stroke="#000000" points="880,-1391 826,-1337 880,-1283 934,-1337 880,-1391"/>
<text text-anchor="middle" x="880" y="-1332.8" font-family="Helvetica,sans-Serif" font-size="14.00" fill="#000000">Errors?</text>
</g>
<!-- validate&#45;&gt;ifErrors -->
<g id="edge13" class="edge">
<title>validate&#45;&gt;ifErrors</title>
<path fill="none" stroke="#000000" d="M880,-1463.694C880,-1444.0964 880,-1421.7877 880,-1401.4089"/>
<polygon fill="#000000" stroke="#000000" points="883.5001,-1401.2676 880,-1391.2676 876.5001,-1401.2677 883.5001,-1401.2676"/>
</g>
<!-- checkDepends -->
<g id="node20" class="node">
<title>checkDepends</title>
<polygon fill="#e5e5e5" stroke="#000000" points="160,-1753 39.8757,-1699 160,-1645 280.1243,-1699 160,-1753"/>
<text text-anchor="middle" x="160" y="-1694.8" font-family="Helvetica,sans-Serif" font-size="14.00" fill="#000000">Should page be shown?</text>
</g>
<!-- runPageComponentCode&#45;&gt;checkDepends -->
<g id="edge8" class="edge">
<title>runPageComponentCode&#45;&gt;checkDepends</title>
<path fill="none" stroke="#000000" d="M160,-1825.694C160,-1806.0964 160,-1783.7877 160,-1763.4089"/>
<polygon fill="#000000" stroke="#000000" points="163.5001,-1763.2676 160,-1753.2676 156.5001,-1763.2677 163.5001,-1763.2676"/>
</g>
<!-- removeHiddenComponents -->
<g id="node9" class="node">
<title>removeHiddenComponents</title>
<polygon fill="none" stroke="#000000" points="1024,-667 736,-667 736,-559 1024,-559 1024,-667"/>
<text text-anchor="middle" x="880" y="-608.8" font-family="Helvetica,sans-Serif" font-size="14.00" fill="#000000">Remove hidden components</text>
</g>
<!-- addTriggersReveals -->
<g id="node12" class="node">
<title>addTriggersReveals</title>
<polygon fill="none" stroke="#000000" points="1024,-486 736,-486 736,-378 1024,-378 1024,-486"/>
<text text-anchor="middle" x="880" y="-427.8" font-family="Helvetica,sans-Serif" font-size="14.00" fill="#000000">Add any triggers and reveals info</text>
</g>
<!-- removeHiddenComponents&#45;&gt;addTriggersReveals -->
<g id="edge19" class="edge">
<title>removeHiddenComponents&#45;&gt;addTriggersReveals</title>
<path fill="none" stroke="#000000" d="M880,-558.694C880,-539.0964 880,-516.7877 880,-496.4089"/>
<polygon fill="#000000" stroke="#000000" points="883.5001,-496.2676 880,-486.2676 876.5001,-496.2677 883.5001,-496.2676"/>
</g>
<!-- setErrors -->
<g id="node10" class="node">
<title>setErrors</title>
<polygon fill="none" stroke="#000000" points="1328,-1210 1040,-1210 1040,-1102 1328,-1102 1328,-1210"/>
<text text-anchor="middle" x="1184" y="-1151.8" font-family="Helvetica,sans-Serif" font-size="14.00" fill="#000000">Set any errors</text>
</g>
<!-- updateValues -->
<g id="node11" class="node">
<title>updateValues</title>
<polygon fill="none" stroke="#000000" points="1024,-1029 736,-1029 736,-921 1024,-921 1024,-1029"/>
<text text-anchor="middle" x="880" y="-970.8" font-family="Helvetica,sans-Serif" font-size="14.00" fill="#000000">Update any values</text>
</g>
<!-- setErrors&#45;&gt;updateValues -->
<g id="edge16" class="edge">
<title>setErrors&#45;&gt;updateValues</title>
<path fill="none" stroke="#000000" d="M1093.2018,-1101.9392C1057.4057,-1080.6264 1016.1733,-1056.0769 979.5654,-1034.2807"/>
<polygon fill="#000000" stroke="#000000" points="981.2382,-1031.2033 970.8553,-1029.0948 977.6571,-1037.218 981.2382,-1031.2033"/>
</g>
<!-- goNext -->
<g id="node17" class="node">
<title>goNext</title>
<polygon fill="none" stroke="#000000" points="1024,-848 736,-848 736,-740 1024,-740 1024,-848"/>
<text text-anchor="middle" x="880" y="-789.8" font-family="Helvetica,sans-Serif" font-size="14.00" fill="#000000">Determine next page</text>
</g>
<!-- updateValues&#45;&gt;goNext -->
<g id="edge17" class="edge">
<title>updateValues&#45;&gt;goNext</title>
<path fill="none" stroke="#000000" d="M880,-920.694C880,-901.0964 880,-878.7877 880,-858.4089"/>
<polygon fill="#000000" stroke="#000000" points="883.5001,-858.2676 880,-848.2676 876.5001,-858.2677 883.5001,-858.2676"/>
</g>
<!-- substitution -->
<g id="node13" class="node">
<title>substitution</title>
<polygon fill="none" stroke="#000000" points="1024,-305 736,-305 736,-197 1024,-197 1024,-305"/>
<text text-anchor="middle" x="880" y="-246.8" font-family="Helvetica,sans-Serif" font-size="14.00" fill="#000000">Substitute text strings</text>
</g>
<!-- addTriggersReveals&#45;&gt;substitution -->
<g id="edge20" class="edge">
<title>addTriggersReveals&#45;&gt;substitution</title>
<path fill="none" stroke="#000000" d="M880,-377.694C880,-358.0964 880,-335.7877 880,-315.4089"/>
<polygon fill="#000000" stroke="#000000" points="883.5001,-315.2676 880,-305.2676 876.5001,-315.2677 883.5001,-315.2676"/>
</g>
<!-- render -->
<g id="node14" class="node">
<title>render</title>
<polygon fill="none" stroke="#000000" points="1024,-124 736,-124 736,-16 1024,-16 1024,-124"/>
<text text-anchor="middle" x="880" y="-65.8" font-family="Helvetica,sans-Serif" font-size="14.00" fill="#000000">Render output</text>
</g>
<!-- substitution&#45;&gt;render -->
<g id="edge21" class="edge">
<title>substitution&#45;&gt;render</title>
<path fill="none" stroke="#000000" d="M880,-196.694C880,-177.0964 880,-154.7877 880,-134.4089"/>
<polygon fill="#000000" stroke="#000000" points="883.5001,-134.2676 880,-124.2676 876.5001,-134.2677 883.5001,-134.2676"/>
</g>
<!-- nextPage -->
<g id="node15" class="node">
<title>nextPage</title>
<polygon fill="none" stroke="#000000" points="664,-124 376,-124 376,-16 664,-16 664,-124"/>
<text text-anchor="middle" x="520" y="-65.8" font-family="Helvetica,sans-Serif" font-size="14.00" fill="#000000">Redirect to next page</text>
</g>
<!-- noNextPage -->
<g id="node16" class="node">
<title>noNextPage</title>
<polygon fill="none" stroke="#000000" points="304,-124 16,-124 16,-16 304,-16 304,-124"/>
<text text-anchor="middle" x="160" y="-65.8" font-family="Helvetica,sans-Serif" font-size="14.00" fill="#000000">Error &#45; no next page</text>
</g>
<!-- ifRedirect -->
<g id="node23" class="node">
<title>ifRedirect</title>
<polygon fill="#e5e5e5" stroke="#000000" points="538,-848 483.3373,-794 538,-740 592.6627,-794 538,-848"/>
<text text-anchor="middle" x="538" y="-789.8" font-family="Helvetica,sans-Serif" font-size="14.00" fill="#000000">Redirect?</text>
</g>
<!-- goNext&#45;&gt;ifRedirect -->
<g id="edge22" class="edge">
<title>goNext&#45;&gt;ifRedirect</title>
<path fill="none" stroke="#000000" d="M735.8257,-794C691.4944,-794 647.1631,-794 602.8318,-794"/>
<polygon fill="#000000" stroke="#000000" points="602.7735,-790.5001 592.7734,-794 602.7734,-797.5001 602.7735,-790.5001"/>
</g>
<!-- goNextForced -->
<g id="node18" class="node">
<title>goNextForced</title>
<polygon fill="none" stroke="#000000" points="304,-1572 16,-1572 16,-1464 304,-1464 304,-1572"/>
<text text-anchor="middle" x="160" y="-1513.8" font-family="Helvetica,sans-Serif" font-size="14.00" fill="#000000">Determine next page (forced)</text>
</g>
<!-- ifRedirectForced -->
<g id="node24" class="node">
<title>ifRedirectForced</title>
<polygon fill="#e5e5e5" stroke="#000000" points="160,-848 105.3373,-794 160,-740 214.6627,-794 160,-848"/>
<text text-anchor="middle" x="160" y="-789.8" font-family="Helvetica,sans-Serif" font-size="14.00" fill="#000000">Redirect?</text>
</g>
<!-- goNextForced&#45;&gt;ifRedirectForced -->
<g id="edge23" class="edge">
<title>goNextForced&#45;&gt;ifRedirectForced</title>
<path fill="none" stroke="#000000" d="M160,-1463.7466C160,-1427.7922 160,-1379.579 160,-1337 160,-1337 160,-1337 160,-975 160,-936.4128 160,-893.1982 160,-858.6741"/>
<polygon fill="#000000" stroke="#000000" points="163.5001,-858.2534 160,-848.2534 156.5001,-858.2534 163.5001,-858.2534"/>
</g>
<!-- handleAddDeleteRequired&#45;&gt;handleAddDelete -->
<g id="edge4" class="edge">
<title>handleAddDeleteRequired&#45;&gt;handleAddDelete</title>
<path fill="none" stroke="#000000" d="M193.9878,-2402.7639C234.8834,-2378.4148 305.3742,-2336.445 364.0771,-2301.4935"/>
<polygon fill="#000000" stroke="#000000" points="366.2171,-2304.2929 373.0188,-2296.1697 362.6359,-2298.2783 366.2171,-2304.2929"/>
<text text-anchor="middle" x="274.0372" y="-2352.3472" font-family="Times,serif" font-size="14.00" fill="#000000">yes</text>
</g>
<!-- handleAddDeleteRequired&#45;&gt;updatePageInstance -->
<g id="edge6" class="edge">
<title>handleAddDeleteRequired&#45;&gt;updatePageInstance</title>
<path fill="none" stroke="#000000" d="M160,-2368.8049C160,-2303.799 160,-2194.9394 160,-2125.6207"/>
<polygon fill="#000000" stroke="#000000" points="163.5001,-2125.2692 160,-2115.2692 156.5001,-2125.2693 163.5001,-2125.2692"/>
<text text-anchor="middle" x="153" y="-2244.9233" font-family="Times,serif" font-size="14.00" fill="#000000">no</text>
</g>
<!-- checkDepends&#45;&gt;goNextForced -->
<g id="edge10" class="edge">
<title>checkDepends&#45;&gt;goNextForced</title>
<path fill="none" stroke="#000000" d="M160,-1644.694C160,-1625.0964 160,-1602.7877 160,-1582.4089"/>
<polygon fill="#000000" stroke="#000000" points="163.5001,-1582.2676 160,-1572.2676 156.5001,-1582.2677 163.5001,-1582.2676"/>
<text text-anchor="middle" x="153" y="-1611.1863" font-family="Times,serif" font-size="14.00" fill="#000000">no</text>
</g>
<!-- ifPostHandling -->
<g id="node21" class="node">
<title>ifPostHandling</title>
<polygon fill="#e5e5e5" stroke="#000000" points="538,-1753 484,-1699 538,-1645 592,-1699 538,-1753"/>
<text text-anchor="middle" x="538" y="-1694.8" font-family="Helvetica,sans-Serif" font-size="14.00" fill="#000000">POST?</text>
</g>
<!-- checkDepends&#45;&gt;ifPostHandling -->
<g id="edge9" class="edge">
<title>checkDepends&#45;&gt;ifPostHandling</title>
<path fill="none" stroke="#000000" d="M280.3398,-1699C344.748,-1699 409.1562,-1699 473.5643,-1699"/>
<polygon fill="#000000" stroke="#000000" points="473.9015,-1702.5001 483.9014,-1699 473.9014,-1695.5001 473.9015,-1702.5001"/>
<text text-anchor="middle" x="372.9045" y="-1701.8" font-family="Times,serif" font-size="14.00" fill="#000000">yes</text>
</g>
<!-- ifPostHandling&#45;&gt;evaluateRequiredIf -->
<g id="edge11" class="edge">
<title>ifPostHandling&#45;&gt;evaluateRequiredIf</title>
<path fill="none" stroke="#000000" d="M592.1909,-1699C628.3264,-1699 677.7923,-1699 725.5247,-1699"/>
<polygon fill="#000000" stroke="#000000" points="725.6786,-1702.5001 735.6786,-1699 725.6785,-1695.5001 725.6786,-1702.5001"/>
<text text-anchor="middle" x="664" y="-1704.8" font-family="Times,serif" font-size="14.00" fill="#000000">yes</text>
</g>
<!-- ifPostHandling&#45;&gt;ifRedirect -->
<g id="edge18" class="edge">
<title>ifPostHandling&#45;&gt;ifRedirect</title>
<path fill="none" stroke="#000000" d="M538,-1644.7466C538,-1608.7922 538,-1560.579 538,-1518 538,-1518 538,-1518 538,-975 538,-936.4128 538,-893.1982 538,-858.6741"/>
<polygon fill="#000000" stroke="#000000" points="541.5001,-858.2534 538,-848.2534 534.5001,-858.2534 541.5001,-858.2534"/>
<text text-anchor="middle" x="531" y="-1452.925" font-family="Times,serif" font-size="14.00" fill="#000000">no</text>
</g>
<!-- ifErrors&#45;&gt;setErrors -->
<g id="edge14" class="edge">
<title>ifErrors&#45;&gt;setErrors</title>
<path fill="none" stroke="#000000" d="M913.9878,-1316.7639C954.8834,-1292.4148 1025.3742,-1250.445 1084.0771,-1215.4935"/>
<polygon fill="#000000" stroke="#000000" points="1086.2171,-1218.2929 1093.0188,-1210.1697 1082.6359,-1212.2783 1086.2171,-1218.2929"/>
<text text-anchor="middle" x="994.0372" y="-1266.3472" font-family="Times,serif" font-size="14.00" fill="#000000">yes</text>
</g>
<!-- ifErrors&#45;&gt;updateValues -->
<g id="edge15" class="edge">
<title>ifErrors&#45;&gt;updateValues</title>
<path fill="none" stroke="#000000" d="M880,-1282.8049C880,-1217.799 880,-1108.9394 880,-1039.6207"/>
<polygon fill="#000000" stroke="#000000" points="883.5001,-1039.2692 880,-1029.2692 876.5001,-1039.2693 883.5001,-1039.2692"/>
<text text-anchor="middle" x="873" y="-1158.9233" font-family="Times,serif" font-size="14.00" fill="#000000">no</text>
</g>
<!-- ifRedirect&#45;&gt;removeHiddenComponents -->
<g id="edge26" class="edge">
<title>ifRedirect&#45;&gt;removeHiddenComponents</title>
<path fill="none" stroke="#000000" d="M573.6321,-775.1421C619.4772,-750.879 701.2549,-707.599 768.7948,-671.8542"/>
<polygon fill="#000000" stroke="#000000" points="770.6,-674.8588 777.8013,-667.0876 767.3256,-668.6719 770.6,-674.8588"/>
<text text-anchor="middle" x="668.762" y="-723.8909" font-family="Times,serif" font-size="14.00" fill="#000000">no</text>
</g>
<!-- ifRedirect&#45;&gt;nextPage -->
<g id="edge27" class="edge">
<title>ifRedirect&#45;&gt;nextPage</title>
<path fill="none" stroke="#000000" d="M534.1571,-743.7091C531.7109,-707.4073 529,-657.2047 529,-613 529,-613 529,-613 529,-251 529,-212.3651 526.9292,-169.1486 524.7742,-134.6353"/>
<polygon fill="#000000" stroke="#000000" points="528.239,-133.9734 524.1049,-124.2184 521.2534,-134.4223 528.239,-133.9734"/>
<text text-anchor="middle" x="519.6689" y="-570.551" font-family="Times,serif" font-size="14.00" fill="#000000">yes</text>
</g>
<!-- ifRedirectForced&#45;&gt;nextPage -->
<g id="edge25" class="edge">
<title>ifRedirectForced&#45;&gt;nextPage</title>
<path fill="none" stroke="#000000" d="M198.703,-777.8858C253.9975,-751.9754 349,-695.4598 349,-613 349,-613 349,-613 349,-251 349,-202.1658 382.2968,-161.1857 419.5048,-130.637"/>
<polygon fill="#000000" stroke="#000000" points="421.8495,-133.244 427.4933,-124.2774 417.4898,-127.7674 421.8495,-133.244"/>
<text text-anchor="middle" x="339.6689" y="-570.5521" font-family="Times,serif" font-size="14.00" fill="#000000">yes</text>
</g>
<!-- ifRedirectForced&#45;&gt;noNextPage -->
<g id="edge24" class="edge">
<title>ifRedirectForced&#45;&gt;noNextPage</title>
<path fill="none" stroke="#000000" d="M160,-739.7466C160,-703.7922 160,-655.579 160,-613 160,-613 160,-613 160,-251 160,-212.4128 160,-169.1982 160,-134.6741"/>
<polygon fill="#000000" stroke="#000000" points="163.5001,-134.2534 160,-124.2534 156.5001,-134.2534 163.5001,-134.2534"/>
<text text-anchor="middle" x="153" y="-570.55" font-family="Times,serif" font-size="14.00" fill="#000000">no</text>
</g>
</g>
</svg>
